<?xml version="1.0" standalone="no"?>
<!DOCTYPE svg PUBLIC "-//W3C//DTD SVG 20010904//EN"
 "http://www.w3.org/TR/2001/REC-SVG-20010904/DTD/svg10.dtd">
<svg version="1.0" xmlns="http://www.w3.org/2000/svg"
 width="167.000000pt" height="167.000000pt" viewBox="0 0 167.000000 167.000000"
 preserveAspectRatio="xMidYMid meet">

<g transform="translate(0.000000,167.000000) scale(0.100000,-0.100000)"
 stroke="none">
<path d="M808 1580 c-124 -22 -305 -98 -295 -123 4 -12 348 -541 387 -597 l18
-26 -310 -179 c-171 -99 -318 -185 -326 -191 -14 -11 -13 -17 13 -55 105 -151
254 -255 436 -305 88 -24 280 -25 369 -1 36 9 108 38 160 64 80 39 109 60 185
137 100 100 154 190 197 326 19 63 23 97 23 205 0 108 -4 142 -23 205 -83 263
-283 458 -540 524 -75 20 -229 28 -294 16z" fill="#fddc00" />
<path d="M226 1408 c-101 -103 -155 -191 -198 -328 -19 -62 -23 -96 -23 -200
0 -138 15 -211 65 -318 28 -60 31 -62 52 -51 32 17 622 360 627 364 7 8 -405
625 -417 625 -8 0 -55 -42 -106 -92z" fill="#10af0e" />
</g>
</svg>
